Coordinates
version=1
nRows=10
nColumns=28
inDegrees=yes

Units are S.I. units (second, meters, Newtons, ...)
Angles are in degrees.

endheader
time	pelvis_tilt	pelvis_list	pelvis_rotation	pelvis_tx	pelvis_ty	pelvis_tz	hip_flexion_r	hip_adduction_r	hip_rotation_r	knee_angle_r	ankle_angle_r	subtalar_angle_r	mtp_angle_r	hip_flexion_l	hip_adduction_l	hip_rotation_l	knee_angle_l	socket_flexion	socket_adduction	socket_rotation	socket_tx	socket_ty	socket_tz	foot_flex	lumbar_extension	lumbar_bending	lumbar_rotation
      0.00000000	      0.23520595	     -6.29968701	     -7.44352154	     -0.86883154	      0.99251189	      0.29356798	    -25.68100726	      8.06712654	      3.45574431	     -3.69871054	     12.60430485	     -6.39968739	      2.98214955	     24.72193804	     -9.65517687	      8.77428442	      2.06837441	      6.08858178	      0.00000000	      0.00000000	      0.00000000	      0.00000000	      0.00000000	     -0.33255606	    -11.87619903	      3.90992740	     10.03831931
      0.00416667	      0.17553049	     -6.32060069	     -7.36066298	     -0.86320684	      0.99189137	      0.29308968	    -25.78509009	      8.08646643	      3.52341033	     -3.92704323	     12.56283910	     -6.40650892	      2.97597002	     24.54275177	     -9.57030637	      8.78845445	      2.03126784	      6.06764856	      0.00000000	      0.00000000	      0.00000000	      0.00000000	      0.00000000	     -0.40800120	    -11.71738876	      3.93462013	     10.04014803
      0.00833333	      0.14928342	     -6.33025479	     -7.39165910	     -0.85770515	      0.99146156	      0.29277466	    -25.66863441	      8.05569121	      3.46698900	     -4.64286269	     12.35697246	     -6.60323256	      2.92632167	     24.25487702	     -9.54133678	      8.83975307	      2.12787963	      6.05350960	      0.00000000	      0.00000000	      0.00000000	      0.00000000	      0.00000000	     -0.91850444	    -11.70579147	      3.90083630	     10.01967410
      0.01250000	      0.08664778	     -6.35919000	     -7.29716437	     -0.85160375	      0.99086290	      0.29225223	    -25.76431765	      8.08541075	      3.52246925	     -4.91056300	     12.30718984	     -6.62575256	      2.92094770	     24.04810430	     -9.45252371	      8.83869012	      2.10210905	      6.04265800	      0.00000000	      0.00000000	      0.00000000	      0.00000000	      0.00000000	     -0.98382615	    -11.52519324	      3.93900933	     10.02380356
      0.01666667	      0.04511564	     -6.39756732	     -7.40105437	     -0.84577139	      0.99046015	      0.29198043	    -25.48903983	      8.05297079	      3.32244672	     -5.94834133	     12.03954320	     -7.01574443	      2.88588585	     23.65083990	     -9.48875894	      8.80400005	      2.45975615	      6.20520642	      0.00000000	      0.00000000	      0.00000000	      0.00000000	      0.00000000	     -1.47275063	    -11.50844131	      3.95415734	     10.03280386
      0.02083333	     -0.02828329	     -6.40425645	     -7.43373192	     -0.83954291	      0.98997379	      0.29163050	    -25.37066691	      8.01860682	      3.31732137	     -6.62666823	     11.85342163	     -7.22817085	      2.89617148	     23.28672187	     -9.46337381	      8.80942815	      2.80361596	      6.38381036	      0.00000000	      0.00000000	      0.00000000	      0.00000000	      0.00000000	     -1.78873167	    -11.37891721	      3.94370433	     10.07107711
      0.02500000	     -0.08846352	     -6.41888600	     -7.32215174	     -0.83300556	      0.98943854	      0.29110605	    -25.46396739	      8.04688774	      3.41989917	     -6.92738385	     11.78760828	     -7.23681635	      2.89428645	     23.05374298	     -9.35825358	      8.84604513	      2.78409167	      6.39103944	      0.00000000	      0.00000000	      0.00000000	      0.00000000	      0.00000000	     -1.85524635	    -11.17349294	      3.95076791	     10.07432751
      0.02916667	     -0.22320870	     -6.37276529	     -7.56723855	     -0.82654553	      0.98900359	      0.29114733	    -25.07584166	      7.89545202	      3.35742808	     -8.03202352	     11.39446566	     -7.75821068	      3.00582768	     22.42850909	     -9.42797502	      8.74231158	      3.87854603	      7.03841683	      0.00000000	      0.00000000	      0.00000000	      0.00000000	      0.00000000	     -2.26199890	    -10.98821802	      3.83543245	     10.19101782
      0.03333333	     -0.26333110	     -6.34224433	     -7.52681144	     -0.82006103	      0.98866711	      0.29074384	    -25.01260452	      7.85862646	      3.45533194	     -8.65682879	     11.13461696	     -7.87769125	      3.00911983	     22.07367864	     -9.33017156	      8.82170797	      4.08448805	      7.12200629	      0.00000000	      0.00000000	      0.00000000	      0.00000000	      0.00000000	     -2.61424982	    -10.88369990	      3.75433164	     10.19801020
      0.03750000	     -0.29637966	     -6.29614039	     -7.52106893	     -0.81360239	      0.98838209	      0.29035723	    -24.88200421	      7.78593889	      3.46797883	     -9.41242388	     10.82678222	     -8.08062247	      2.99656028	     21.70443287	     -9.23428637	      8.89969649	      4.30820051	      7.27574258	      0.00000000	      0.00000000	      0.00000000	      0.00000000	      0.00000000	     -2.88894141	    -10.77362268	      3.64900353	     10.18093340
